<svg viewBox="0 0 60 40" xmlns="http://www.w3.org/2000/svg" fill="currentColor">
  <path d="M26 20c1-8 9-14 17-13 9 1 15 9 15 17l-2-1c-2-1-5 1-4 4 0 2 2 3 4 4h1c1 0 2 0 2-1s-1-2-2-2c-2-1-4 0-4 2 0 1 1 2 2 3 1 0 2 0 1 1-2 1-5 2-7 3-3 2-4 2-5 1s-1-3 0-4l1-1c1 0 3-1 3-3 0-4-7-7-8-11s2-6 5-5c3 1 3 5 4 8 0 1 1 2 1 0s-1-3-2-5c-2-3-6-2-9-2 0-1-1-2-1-3-1-8 8-10 14-10 0 1 1 2 3 1l3-2c1-1 0-2-1-2-14-5-28 6-28 19v1c-1-1-4 2-3 5M20 27c2-1 5-3 4-6-1-3-5-5-8-3-2 2-1 6 1 7h-1c-3 0-6-3-6-6-1-7 9-10 11-3h1v-2c0-4-4-8-9-8-5 0-9 5-9 9-1 6 4 12 10 12h6c0 1 0-1 0-1M42 36c8-1 16-6 16-15v-1c1-5-4 0-5 2 0 1-1 1-1 0v-9c-3 0-7 1-9 4-2 2-3 4-1 7 1 2 4 4 6 4v3l-1 2c-2 2-3 3-7 3-1 0-1 1-1 1 0 1 1 1 2 1M49 35c1-2-1-3-2-4-4-4 6-12 9-8 2 3-1 3-3 8l-1 2v-1c0-2 0-4-3-3-3 0-4 2-3 4 1 1 2 1 3 1h1c1 1 2 2 1 4-4 3-8-2-8-5z" fill="#F27405"/>
</svg>
